<?xml version="1.0" encoding="UTF-8"?>
<svg width="47px" height="38px" viewBox="0 0 47 38" version="1.1" xmlns="http://www.w3.org/2000/svg" xmlns:xlink="http://www.w3.org/1999/xlink">
    <!-- Generator: Sketch 40.3 (33839) - http://www.bohemiancoding.com/sketch -->
    <title>camera</title>
    <desc>Created with Sketch.</desc>
    <defs></defs>
    <g id="Page-1" stroke="none" stroke-width="1" fill="none" fill-rule="evenodd">
        <g id="Iris-Style-Step-1" transform="translate(-377.000000, -317.000000)" fill="#616161">
            <g id="Icon-Camera" transform="translate(377.000000, 317.000000)">
                <path d="M31,28 L3,28 C1.346,28 0,26.654 0,25 L0,7 C0,5.346 1.346,4 3,4 L9,4 C9.171,4 9.476,3.811 9.553,3.658 L10.658,1.447 C11.07,0.622 12.077,0 12.999,0 L21,0 C21.923,0 22.93,0.622 23.342,1.447 L24.447,3.658 C24.524,3.811 24.829,4 25,4 L31,4 C32.654,4 34,5.346 34,7 L34,25 C34,26.654 32.654,28 31,28 L31,28 Z M3,6 C2.449,6 2,6.448 2,7 L2,25 C2,25.552 2.449,26 3,26 L31,26 C31.551,26 32,25.552 32,25 L32,7 C32,6.448 31.551,6 31,6 L25,6 C24.078,6 23.071,5.378 22.658,4.553 L21.553,2.342 C21.477,2.189 21.172,2 21,2 L12.999,2 C12.828,2 12.524,2.189 12.448,2.341 L11.342,4.553 C10.929,5.378 9.922,6 9,6 L3,6 L3,6 Z" id="Fill-21"></path>
                <path d="M17,24 C12.038,24 8,19.963 8,15 C8,10.037 12.038,6 17,6 C21.962,6 26,10.037 26,15 C26,19.963 21.962,24 17,24 L17,24 Z M17,8 C13.14,8 10,11.141 10,15 C10,18.859 13.14,22 17,22 C20.86,22 24,18.859 24,15 C24,11.141 20.86,8 17,8 L17,8 Z" id="Fill-22"></path>
                <path d="M28,8 C28,8.552 27.552,9 27,9 C26.448,9 26,8.552 26,8 C26,7.448 26.448,7 27,7 C27.552,7 28,7.448 28,8" id="Fill-23"></path>
                <polygon id="Fill-24" points="4 2 8 2 8 3 4 3"></polygon>
                <path d="M17,11 L17,10 C14.239,10 12,12.239 12,15 L13,15 C13,12.794 14.794,11 17,11" id="Fill-25"></path>
            </g>
        </g>
    </g>
</svg>