<?xml version="1.0" encoding="UTF-8"?>
<svg width="57px" height="37px" viewBox="0 0 57 37" version="1.1" xmlns="http://www.w3.org/2000/svg" xmlns:xlink="http://www.w3.org/1999/xlink" style="background: #FFFFFF;">
    <!-- Generator: Sketch 40.3 (33839) - http://www.bohemiancoding.com/sketch -->
    <title>Icon Eye</title>
    <desc>Created with Sketch.</desc>
    <defs>
        <linearGradient x1="5.74932104%" y1="83.0172515%" x2="94.2901639%" y2="8.75359966%" id="linearGradient-1">
            <stop stop-color="#FF9F9F" offset="0%"></stop>
            <stop stop-color="#9ECB8B" offset="40.9441551%"></stop>
            <stop stop-color="#66DFFF" offset="100%"></stop>
        </linearGradient>
    </defs>
    <g id="Symbols" stroke="none" stroke-width="1" fill="none" fill-rule="evenodd">
        <g id="Icon-Eye">
            <path d="M28.4484734,36.7320996 C9.22041233,36.7320996 0.526364602,19.785932 0.165092808,19.0650687 C-0.055030936,18.6248212 -0.055030936,18.1072784 0.165092808,17.6670309 C0.526364602,16.9461676 9.22041233,0 28.4484734,0 C47.6765345,0 56.3705823,16.9461676 56.7318541,17.6670309 C56.9519778,18.1072784 56.9519778,18.6248212 56.7318541,19.0650687 C56.3705823,19.785932 47.6765345,36.7320996 28.4484734,36.7320996 L28.4484734,36.7320996 Z M3.35268626,18.3660498 C5.1674469,21.4461019 13.2935418,33.6066785 28.4484734,33.6066785 C43.6034051,33.6066785 51.7295,21.4461019 53.5442606,18.3660498 C51.7295,15.2859977 43.6034051,3.1254211 28.4484734,3.1254211 C13.2935418,3.1254211 5.1674469,15.2859977 3.35268626,18.3660498 L3.35268626,18.3660498 Z" id="Fill-174" fill="#616161"></path>
            <path d="M28.5656767,33.4890551 C20.2917125,33.4890551 13.5602948,26.7576374 13.5602948,18.4836732 C13.5602948,10.2097089 20.2917125,3.47829122 28.5656767,3.47829122 C36.839641,3.47829122 43.5710587,10.2097089 43.5710587,18.4836732 C43.5710587,26.7576374 36.839641,33.4890551 28.5656767,33.4890551 L28.5656767,33.4890551 Z M28.5656767,6.60371233 C22.0157351,6.60371233 16.6857159,11.9337315 16.6857159,18.4836732 C16.6857159,25.0336148 22.0157351,30.363634 28.5656767,30.363634 C35.1156184,30.363634 40.4456376,25.0336148 40.4456376,18.4836732 C40.4456376,11.9337315 35.1156184,6.60371233 28.5656767,6.60371233 L28.5656767,6.60371233 Z" id="Fill-175" fill="#616161"></path>
            <path d="M20.2816305,18.4836732 C20.2816305,17.6199815 20.9806494,16.9209626 21.844341,16.9209626 C22.7080327,16.9209626 23.4070516,17.6199815 23.4070516,18.4836732 C23.4070516,21.3284785 25.7225517,23.6422983 28.5656767,23.6422983 C31.4088017,23.6422983 33.7243019,21.3284785 33.7243019,18.4836732 C33.7243019,15.6388678 31.4088017,13.325048 28.5656767,13.325048 C27.7019851,13.325048 27.0029662,12.6260291 27.0029662,11.7623375 C27.0029662,10.8986458 27.7019851,10.1996269 28.5656767,10.1996269 C33.1345047,10.1996269 36.849723,13.9165256 36.849723,18.4836732 C36.849723,23.0508208 33.1345047,26.7677194 28.5656767,26.7677194 C23.9968488,26.7677194 20.2816305,23.0508208 20.2816305,18.4836732 Z" id="Fill-176" fill="url(#linearGradient-1)"></path>
        </g>
    </g>
</svg>